<?xml version="1.0" standalone="no"?>
<!DOCTYPE svg PUBLIC "-//W3C//DTD SVG 20010904//EN"
 "http://www.w3.org/TR/2001/REC-SVG-20010904/DTD/svg10.dtd">
<svg version="1.0" xmlns="http://www.w3.org/2000/svg"
 width="500.000000pt" height="500.000000pt" viewBox="0 0 500.000000 500.000000"
 preserveAspectRatio="xMidYMid meet">
<metadata>
Created by potrace 1.14, written by Peter Selinger 2001-2017
</metadata>
<g transform="translate(0.000000,500.000000) scale(0.100000,-0.100000)"
fill="#000000" stroke="none">
<path d="M619 4415 c-2 -82 -3 -4045 -1 -4065 l4 -25 541 1 c298 1 547 2 554
3 10 1 12 177 12 788 -1 434 0 851 0 928 l1 140 28 -30 c15 -16 39 -46 52 -65
27 -38 48 -65 68 -85 6 -8 12 -17 12 -20 0 -4 10 -19 23 -34 12 -15 33 -42 47
-61 39 -52 109 -144 117 -155 5 -5 48 -63 97 -127 48 -65 92 -118 97 -118 5 0
8 -3 7 -7 -3 -7 11 -27 67 -101 6 -7 18 -22 28 -33 9 -10 17 -22 17 -25 0 -3
6 -11 13 -18 6 -8 19 -24 27 -36 8 -12 20 -28 25 -34 6 -6 45 -58 88 -116 43
-58 84 -112 90 -120 7 -8 46 -60 87 -115 99 -132 92 -122 144 -187 25 -32 46
-62 46 -67 0 -6 6 -14 13 -18 6 -4 48 -57 92 -117 44 -59 92 -122 107 -140
l26 -31 189 -1 c262 -1 343 8 469 51 57 20 126 48 152 63 26 15 59 34 75 41
15 8 27 18 27 23 0 4 7 8 15 8 9 0 18 7 21 15 4 8 10 15 15 15 26 0 209 190
209 217 0 6 6 13 13 16 7 2 28 36 47 73 19 38 38 71 41 74 10 9 60 154 74 215
22 92 40 315 26 315 -3 0 -6 26 -7 58 -2 126 -51 280 -132 417 -20 33 -41 65
-47 71 -5 6 -17 22 -25 34 -8 12 -32 41 -52 64 -21 22 -38 44 -38 49 0 4 -8 7
-17 7 -9 0 -13 3 -10 6 4 4 -10 20 -31 36 -20 16 -46 36 -57 46 -11 9 -52 38
-91 63 -40 26 -75 52 -79 59 -6 10 41 65 56 65 21 0 148 97 215 164 142 140
224 286 279 496 35 134 39 341 10 480 -4 17 -8 35 -9 40 -8 38 -38 127 -51
151 -8 16 -15 35 -15 42 0 6 -4 12 -8 12 -5 0 -9 6 -9 13 0 6 -12 31 -26 54
-15 24 -27 47 -27 52 0 5 -4 11 -8 13 -5 2 -23 26 -42 53 -34 52 -215 235
-231 235 -6 0 -18 8 -29 18 -45 42 -243 131 -328 147 -9 2 -17 4 -17 5 0 4
-54 13 -87 14 -21 0 -38 4 -38 7 0 7 -111 10 -460 13 -283 2 -295 1 -306 -17
-7 -12 -8 -33 -4 -53 4 -19 5 -34 1 -34 -3 0 -5 -42 -3 -92 2 -51 3 -106 3
-123 0 -31 0 -103 0 -120 0 -5 0 -37 0 -70 -1 -33 0 -86 2 -118 1 -31 -2 -57
-6 -57 -5 0 -5 -5 -1 -12 4 -6 6 -48 5 -92 -1 -45 -1 -88 -1 -96 0 -8 1 -58 3
-110 1 -52 -1 -103 -6 -112 -4 -10 -4 -18 0 -18 7 0 10 -188 3 -215 -1 -5 -1
-14 0 -20 3 -13 0 -113 -4 -148 -2 -15 1 -30 6 -33 4 -3 6 -9 3 -14 -3 -4 -6
-52 -7 -106 -2 -69 1 -99 10 -102 7 -2 15 5 19 15 3 10 9 20 12 23 4 3 19 23
36 45 64 87 177 173 253 192 12 3 22 8 22 12 0 4 61 8 135 8 74 0 135 -3 135
-8 0 -5 3 -8 8 -7 16 3 108 -42 157 -77 62 -45 165 -175 165 -209 0 -8 4 -17
9 -20 11 -7 21 -55 27 -139 7 -83 -16 -195 -54 -270 -31 -62 -142 -175 -198
-201 -21 -10 -46 -22 -55 -26 -17 -9 -106 -26 -169 -33 -19 -2 -45 0 -57 6
-23 10 -256 289 -261 313 -2 8 -8 12 -13 9 -5 -4 -9 -1 -9 5 0 11 -10 25 -45
64 -11 12 -32 40 -48 62 -15 23 -35 49 -45 60 -10 10 -48 58 -86 107 -37 48
-72 87 -77 87 -5 0 -8 4 -7 8 3 8 -31 57 -57 86 -6 6 -26 31 -45 56 -19 25
-39 50 -45 56 -5 6 -21 26 -35 44 -14 18 -54 69 -89 114 -35 45 -73 94 -85
109 -11 15 -31 40 -44 55 -13 15 -30 39 -40 55 -9 15 -20 27 -24 27 -4 0 -8 4
-8 10 0 5 -10 20 -22 33 -25 27 -60 71 -98 126 -14 20 -33 43 -42 52 -10 9
-18 21 -18 28 0 6 -9 16 -20 23 -11 7 -20 17 -20 21 0 5 -21 34 -46 65 -25 31
-51 64 -57 72 -7 8 -23 31 -37 50 -27 38 -48 65 -67 85 -7 8 -13 18 -13 24 0
6 -3 11 -7 11 -5 0 -37 38 -71 85 -35 47 -69 85 -75 85 -5 0 -8 3 -4 6 3 4 0
13 -8 20 -8 8 -33 41 -56 74 -23 33 -45 60 -50 60 -4 0 -10 8 -13 18 -3 9 -16
28 -28 42 -13 14 -43 51 -67 83 -24 31 -46 58 -50 58 -3 1 -162 2 -354 3 -341
1 -347 1 -348 -19z"/>
</g>
</svg>
